<?xml version="1.0" encoding="UTF-8" standalone="no"?>
<!-- Created with Inkscape (http://www.inkscape.org/) -->

<svg
   width="210mm"
   height="297mm"
   viewBox="0 0 210 297"
   version="1.1"
   id="svg1"
   xmlns="http://www.w3.org/2000/svg"
   xmlns:svg="http://www.w3.org/2000/svg">
  <defs
     id="defs1" />
  <g
     id="layer1">
    <path
       style="fill:#000000;stroke-width:0.264583"
       id="path4"
       d="m 68.989196,84.224481 c -4.511657,0.963199 -8.912082,2.501109 -12.831334,4.975746 -1.382181,0.87272 -2.674874,1.879708 -4.012311,2.819561 -7.847904,6.341991 -14.832118,13.887842 -19.599042,22.846702 -0.937792,1.76247 -1.682324,3.62115 -2.523484,5.43173 -0.583767,1.83463 -1.318655,3.62787 -1.751301,5.50389 -1.192985,5.17301 -1.265783,11.04799 -0.276477,16.26526 0.784696,4.13821 1.477926,5.21102 3.094617,8.98387 0.831305,1.20854 1.555753,2.498 2.493912,3.6256 3.176167,3.81751 7.669491,6.43772 12.294719,8.10331 3.077819,1.10835 6.007524,1.11067 9.216012,1.35695 1.602666,-0.1102 3.228012,-0.0402 4.808003,-0.33061 3.380991,-0.62136 7.048333,-2.15712 10.056447,-3.76575 2.678179,-1.43219 5.89175,-3.57704 8.064476,-5.75206 1.072767,-1.0739 1.920777,-2.35095 2.881165,-3.52642 0.684249,-1.25307 1.472731,-2.45463 2.052748,-3.75922 1.377942,-3.09932 2.156669,-6.70867 2.136042,-10.10655 -0.01355,-2.22952 -0.274904,-2.76643 -0.801515,-4.83103 -0.278747,-0.58095 -0.502547,-1.19162 -0.83624,-1.74285 -1.112234,-1.83729 -3.675507,-3.6964 -5.806667,-3.8316 -0.288542,-0.0183 -0.574432,0.0663 -0.861648,0.0994 -0.21174,0.14835 -0.463491,0.25178 -0.635219,0.44505 -1.261589,1.41984 0.108863,3.59687 0.896702,4.84818 1.416566,0.98902 1.857499,1.40469 3.993877,1.92153 0.471049,0.11397 0.973572,-0.0441 1.445858,-0.15281 1.596081,-0.36738 2.857045,-1.27831 4.132395,-2.24365 1.688909,-1.35524 2.594634,-2.84116 3.042954,-4.92414 -0.954402,0.19932 0.279022,-0.44883 0.115795,-0.51046 -0.617008,-0.23295 -1.23513,-0.70612 -1.885833,-0.59862 -0.29668,0.049 0.03754,0.60026 0.06147,0.90001 0.123018,1.54098 0.07093,0.99232 0.371639,2.69524 0.204099,0.54836 0.303191,1.14829 0.612298,1.6451 0.37137,0.59688 0.855234,1.13134 1.395222,1.58143 1.241931,1.03518 5.132557,2.77697 6.048132,3.05362 1.572432,0.47513 3.187705,-0.0719 4.694002,-0.39141 4.22773,-1.53374 5.98771,-3.72943 8.0374,-7.51929 0.67541,-1.42056 1.22388,-1.85889 -1.58567,-2.21494 -0.22936,-0.0291 -0.23187,0.40428 -0.3008,0.62495 -0.28902,0.92526 -0.24887,1.4227 -0.30548,2.41271 0.10954,2.02845 1.0018,3.78604 2.86133,4.74047 1.07589,0.55221 2.15114,1.13555 3.30622,1.49368 0.47212,0.14638 0.98858,-0.006 1.48286,-0.009 3.21094,-0.41709 5.35138,-2.73703 7.3786,-5.04335 0.83391,-0.98024 1.46258,-2.09989 2.27535,-3.09572 0.20476,-0.25089 0.39101,-0.52431 0.64138,-0.72971 0.5488,-0.45022 0.89089,-0.42512 1.5568,-0.54771 0.32956,0.0564 0.66463,0.0868 0.98868,0.16909 0.56473,0.14347 1.55972,0.53578 2.09954,0.75894 0.29602,0.12238 0.59015,0.24961 0.88077,0.38432 0.16302,0.0756 0.65086,0.30029 0.47951,0.24623 -0.8079,-0.25492 -1.59663,-0.56707 -2.39494,-0.8506 -2.68123,1.03367 -5.44504,2.48585 -7.07793,4.95811 -0.32925,0.4985 -0.52793,1.07187 -0.7919,1.60781 -0.0639,0.5267 -0.23181,1.05106 -0.19177,1.58012 0.17772,2.34787 2.62216,3.42674 4.58145,3.9742 0.91734,0.25632 2.46906,-0.38418 3.28455,-0.64828 0.4296,-0.32885 0.93274,-0.57923 1.28881,-0.98656 0.62302,-0.71272 1.04422,-1.88738 0.93934,-2.84155 -0.16429,-1.49457 -1.2188,-2.48655 -2.2751,-3.38487 -0.80209,-0.42744 -1.57002,-0.92631 -2.40627,-1.28231 -0.5756,-0.24504 -0.54063,0.63155 0.003,0.92873 2.59707,1.42036 1.83715,1.23234 3.92155,1.24343 0.54269,-0.0617 1.08833,-0.10151 1.62808,-0.18519 0.61347,-0.0951 1.21938,-0.23387 1.82907,-0.35081 0.65884,-0.11524 1.3151,-0.24638 1.97653,-0.34573 1.88606,-0.28331 3.74237,-0.38234 5.64583,-0.39743 1.26538,-0.0539 2.52925,0.1937 3.79394,0.14683 0.21786,-0.008 0.45442,0.009 0.64744,-0.0927 0.0873,-0.0458 0.15784,-0.23414 0.0742,-0.28622 -0.7051,-0.43878 -1.50051,-0.71219 -2.25077,-1.06828 -0.93566,0.072 -1.86289,0.0743 -2.74478,0.48526 -1.55665,0.7253 -2.97475,2.30411 -3.198,4.06312 -0.0619,0.48749 0.11038,0.97658 0.16557,1.46487 1.25632,1.27368 1.77827,2.06155 4.09349,2.26547 0.64104,0.0565 1.24071,-0.43596 1.73338,-0.84995 2.54304,-2.13695 3.50335,-5.85931 4.52277,-8.83302 1.90707,-6.50916 2.64438,-13.24909 2.99847,-19.9959 0.0155,-0.42432 0.49871,-3.1913 -1.63162,-2.0041 -0.55362,0.30852 -0.2294,1.24715 -0.31376,1.8753 -0.52125,3.88153 -0.86504,7.79443 -1.30736,11.68549 -0.47778,3.99255 -0.91892,7.98918 -1.43545,11.97702 -0.10889,0.8407 -0.52904,3.45847 -0.48013,4.5362 0.0118,0.26003 0.15649,0.49653 0.23474,0.74479 0.81283,0.12371 1.66768,0.65725 2.43848,0.37113 0.6101,-0.22646 0.69642,-1.09973 1.0299,-1.65857 0.4206,-0.7048 0.81188,-1.42682 1.23206,-2.13188 0.4872,-0.81754 2.12151,-3.52296 2.77424,-4.29218 0.45706,-0.53863 1.03804,-0.95843 1.55706,-1.43765 3.09588,-1.29377 0.17594,-0.37783 3.18633,-0.52488 0.19241,-0.009 -0.62127,-0.38108 -0.53974,-0.20656 0.22359,0.47854 0.72838,0.77361 1.01266,1.21878 0.53342,0.83533 0.86342,1.95217 1.18533,2.87738 0.7717,2.96965 0.72657,3.14711 3.9952,4.65546 0.63507,0.29306 2.16798,0.26113 2.76027,0.28026 1.50309,0.0287 2.9996,-0.12547 4.4906,-0.29335 0.35928,-0.0404 0.72254,-0.0578 1.07686,-0.12981 0.0621,-0.0126 0.20845,-0.099 0.14831,-0.11898 -1.19759,-0.39833 -2.42665,-0.69493 -3.63998,-1.0424 -22.66257,1.53602 -45.27844,3.74647 -67.83365,6.4267 -6.677445,0.79348 -13.342312,1.68942 -20.013469,2.53413 -14.529109,1.97545 -29.050908,4.01372 -43.519023,6.40014 -1.906865,0.31452 -3.815953,0.61977 -5.712378,0.99211 -0.288536,0.0567 -1.117576,0.22228 -0.832117,0.29282 2.144831,0.52999 4.355602,0.74399 6.533401,1.11598 3.151214,-0.25013 6.298927,-0.54915 9.453636,-0.7504 28.060446,-1.79015 56.20368,-1.78032 84.30756,-2.02691 12.71458,-0.074 25.42509,-0.40633 38.13635,-0.67669 0,0 -0.0648,-0.0469 -0.0648,-0.0469 v 0 c -12.85107,0.27328 -25.70334,0.42465 -38.55793,0.37066 -31.680379,0.13072 -63.3747,0.29464 -95.023168,1.87404 -0.857366,0.53281 -1.706586,1.07896 -2.572097,1.59844 -0.196426,0.11789 0.341593,-0.33726 0.563788,-0.39305 1.817267,-0.45628 3.664198,-0.7872 5.506061,-1.13098 14.248013,-2.65944 28.599701,-4.71891 42.940509,-6.79904 6.644868,-0.86235 13.281427,-1.79132 19.934597,-2.58705 22.77258,-2.72364 45.62895,-4.70721 68.53146,-5.91904 -0.0412,-0.42267 -0.12922,-0.84336 -0.12364,-1.26799 5.3e-4,-0.0489 0.18927,-0.0484 0.14085,-0.0413 -1.81329,0.26351 -3.62946,0.54824 -5.47168,0.44309 -0.53292,-0.0405 -1.07075,-0.0387 -1.59874,-0.12149 -0.41676,-0.0654 -0.91225,-0.60548 -1.22408,-0.32137 -0.27008,0.24606 0.55965,0.68362 0.91582,0.60222 0.2891,-0.0661 -0.4365,-0.41729 -0.57295,-0.68058 -0.12005,-0.23166 -0.60086,-2.1567 -0.63308,-2.28115 -0.33907,-1.01621 -0.61886,-2.037 -1.1855,-2.96321 -1.08395,-1.77178 -3.57832,-3.69356 -5.74735,-3.15244 -0.57143,0.14255 -1.05203,0.52976 -1.57804,0.79464 -0.49921,0.50643 -1.05495,0.96277 -1.49765,1.51927 -0.51329,0.64524 -0.91455,1.37231 -1.35639,2.06841 -0.9109,1.43512 -1.73561,2.92436 -2.66483,4.34768 -0.34609,0.53011 -1.08496,0.91536 -1.10002,1.54827 -0.0145,0.60777 0.68487,1.00467 1.02731,1.507 -0.10682,-0.23156 -0.29527,-0.44091 -0.32048,-0.69468 -0.10925,-1.09952 0.30648,-3.68808 0.41232,-4.55623 0.48851,-4.00709 0.8856,-8.0237 1.32789,-12.03601 0.40705,-3.89075 0.75143,-7.80072 1.30448,-11.67471 0.0417,-0.2919 1.11515,-3.24534 -1.04013,-2.68347 -0.42089,0.10972 0.0652,0.86747 0.0978,1.30121 -0.12958,6.76276 -0.91631,13.52186 -2.85374,20.02348 -1.06175,2.87951 -2.09312,6.63256 -4.78642,8.52179 -0.52614,0.36907 -1.31743,0.2449 -1.81425,0.6526 -0.17587,0.14432 0.46033,0.6982 0.24076,0.63865 -0.41469,-0.11246 -0.6525,-0.5592 -0.97875,-0.8388 -0.0689,-0.46079 -0.25169,-0.91865 -0.20658,-1.38237 0.15881,-1.63236 1.47699,-3.29841 2.9189,-4.00922 0.8717,-0.42972 1.7718,-0.38893 2.69672,-0.4289 -0.28113,-0.28105 -0.56799,-0.55649 -0.84339,-0.84316 -0.0287,-0.0298 0.14152,0.0598 0.10171,0.0711 -0.20048,0.0569 -0.4122,0.0709 -0.62052,0.076 -1.27946,0.0314 -2.55345,-0.21511 -3.83393,-0.16731 -1.91917,0.0133 -3.78273,0.12581 -5.68453,0.40655 -1.28126,0.18914 -2.54492,0.48943 -3.82814,0.6648 -0.54389,0.0743 -1.09359,0.097 -1.64039,0.14548 -1.95643,-0.1079 -1.40899,-0.3499 -0.49428,0.65128 0.11594,0.1269 -0.28506,-0.19225 -0.42473,-0.29244 -0.26343,-0.18899 -0.20856,-0.12834 0.11646,-0.15798 -0.32725,-0.22908 -0.6545,-0.45817 -0.98176,-0.68724 1.0527,0.82187 2.1756,1.77309 2.36926,3.21153 0.11977,0.88956 -0.27313,2.04294 -0.85629,2.70973 -0.34137,0.39033 -0.82837,0.62399 -1.24256,0.93598 -0.52917,0.1561 -1.04222,0.38435 -1.58751,0.46831 -0.55626,0.0856 -1.16671,-0.17602 -1.68805,0.036 -0.18704,0.0761 0.45137,0.6482 0.28416,0.53499 -1.46185,-0.98977 -1.49611,-2.24216 -1.2588,-3.82086 0.24474,-0.52741 0.42333,-1.09091 0.73424,-1.58224 1.56731,-2.47691 4.28412,-3.94578 6.95129,-4.92427 -0.27866,-0.50471 -0.48996,-1.053 -0.836,-1.51414 -0.10382,-0.13835 -0.31022,-0.15333 -0.46818,-0.22383 -0.29498,-0.13164 -0.59111,-0.26093 -0.8904,-0.38248 -1.0451,-0.42444 -2.10296,-0.84284 -3.24467,-0.89666 -0.2948,0.0649 -0.60353,0.0841 -0.88442,0.19463 -0.76805,0.30229 -0.88695,0.57915 -1.4033,1.20298 -0.81895,0.98943 -1.4962,2.06852 -2.33055,3.04647 -2.03684,2.22413 -4.18406,4.4702 -7.34027,4.84042 -0.47784,-0.0106 -1.06353,-0.33434 -1.43353,-0.0318 -0.24053,0.1967 0.90943,0.73183 0.59921,0.71405 -0.47087,-0.027 -0.83948,-0.44531 -1.20074,-0.74854 -1.17152,-0.9833 -1.65587,-2.30098 -1.77472,-3.78624 0.0408,-0.94633 -0.009,-1.44607 0.26909,-2.32801 0.0624,-0.19815 0.41237,-0.39341 0.28249,-0.55557 -2.64388,-3.30097 -1.55118,-1.70749 -1.82463,-0.93024 -0.10805,0.30713 -0.26597,0.59437 -0.39896,0.89155 -1.93735,3.71549 -3.8051,5.94929 -7.932567,7.35961 -6.428634,1.18806 1.741717,-0.11785 -4.677748,0.25904 -0.138079,0.008 -0.127969,0.37301 -0.257755,0.32518 -1.225349,-0.45153 -2.650233,-1.54306 -3.381838,-2.64385 -0.321638,-0.48395 -0.43194,-1.07891 -0.647909,-1.61836 -0.108691,-0.50472 -0.243102,-1.00457 -0.326078,-1.51415 -0.06395,-0.39273 -0.07456,-0.7923 -0.11395,-1.18825 -0.02957,-0.29722 0.104187,-0.66682 -0.09292,-0.89124 -0.50787,-0.57825 -1.230805,-0.92604 -1.87416,-1.34839 -0.153615,-0.10085 0.629465,1.29416 -0.0078,0.55122 -0.355528,2.12768 -1.237366,3.44234 -2.89973,4.84343 -1.267166,0.94569 -2.512925,1.82478 -4.107341,2.13216 -0.46966,0.0905 -1.044888,-0.18927 -1.431986,0.0917 -0.207944,0.15093 0.643842,0.64511 0.387768,0.66619 -0.395528,0.0326 -0.679985,-0.40943 -1.019977,-0.61414 -0.739378,-1.11765 -2.207318,-3.25939 -1.044247,-4.58357 0.147741,-0.16821 0.368435,-0.25444 0.552654,-0.38166 0.265118,-0.0239 0.530146,-0.0948 0.795351,-0.0718 0.333679,0.0289 0.662416,0.33425 0.979167,0.22541 0.191251,-0.0657 -0.616691,-0.52121 -0.449546,-0.40738 1.441551,0.98175 2.41108,2.24327 3.060899,3.87111 0.565671,2.06223 0.833067,2.57213 0.878808,4.80968 0.06913,3.38198 -0.657085,6.99923 -2.014863,10.09295 -0.569918,1.29856 -1.356241,2.49096 -2.03436,3.73645 -0.958503,1.16479 -1.804964,2.43163 -2.875505,3.49437 -4.486941,4.45422 -12.043841,8.28218 -18.261068,9.29767 -1.597707,0.26096 -3.232827,0.17866 -4.849241,0.268 -5.379481,-0.47366 -4.100094,-0.13232 -9.286779,-1.48856 -0.771237,-0.20167 -1.577345,-0.34166 -2.282746,-0.713 -2.476534,-1.30368 -4.77398,-3.20787 -6.577885,-5.33955 -0.944748,-1.11641 -1.679051,-2.39509 -2.518577,-3.59263 -1.655397,-3.77336 -2.344849,-4.81206 -3.174368,-8.95786 -1.055835,-5.27689 -1.037383,-11.00592 0.103966,-16.26568 0.407874,-1.87963 1.112935,-3.68223 1.669402,-5.52335 2.262042,-5.00668 2.553443,-6.16125 5.611185,-10.82519 4.395928,-6.70506 10.032804,-12.500055 16.274047,-17.495245 1.344451,-0.928907 2.646794,-1.921923 4.033351,-2.786719 3.922746,-2.446621 8.29642,-4.004736 12.807254,-4.935289 z" />
  </g>
</svg>
